<mxfile host="app.diagrams.net" agent="Mozilla/5.0 (Windows NT 10.0; Win64; x64) AppleWebKit/537.36 (KHTML, like Gecko) Chrome/127.0.0.0 Safari/537.36 OPR/113.0.0.0" version="24.7.17">
  <diagram name="Página-1" id="JfKqqX-Rt1buq1PXofyN">
    <mxGraphModel dx="839" dy="476" grid="1" gridSize="10" guides="1" tooltips="1" connect="1" arrows="1" fold="1" page="1" pageScale="1" pageWidth="1169" pageHeight="1654" math="0" shadow="0">
      <root>
        <mxCell id="0" />
        <mxCell id="1" parent="0" />
        <mxCell id="gQySaqPIzE7P9LQ3NWcE-1" value="main()" style="ellipse;whiteSpace=wrap;html=1;" vertex="1" parent="1">
          <mxGeometry x="354" y="10" width="120" height="80" as="geometry" />
        </mxCell>
        <mxCell id="gQySaqPIzE7P9LQ3NWcE-2" value="mac_address=None" style="rounded=0;whiteSpace=wrap;html=1;" vertex="1" parent="1">
          <mxGeometry x="354" y="110" width="120" height="60" as="geometry" />
        </mxCell>
        <mxCell id="gQySaqPIzE7P9LQ3NWcE-3" value="&lt;br&gt;mostrar_arp=False&lt;div&gt;&lt;br/&gt;&lt;/div&gt;" style="rounded=0;whiteSpace=wrap;html=1;" vertex="1" parent="1">
          <mxGeometry x="354" y="190" width="120" height="60" as="geometry" />
        </mxCell>
        <mxCell id="gQySaqPIzE7P9LQ3NWcE-4" value="" style="endArrow=none;html=1;rounded=0;exitX=0.5;exitY=1;exitDx=0;exitDy=0;entryX=0.5;entryY=0;entryDx=0;entryDy=0;" edge="1" parent="1" source="gQySaqPIzE7P9LQ3NWcE-1" target="gQySaqPIzE7P9LQ3NWcE-2">
          <mxGeometry width="50" height="50" relative="1" as="geometry">
            <mxPoint x="390" y="290" as="sourcePoint" />
            <mxPoint x="440" y="240" as="targetPoint" />
          </mxGeometry>
        </mxCell>
        <mxCell id="gQySaqPIzE7P9LQ3NWcE-5" value="" style="endArrow=none;html=1;rounded=0;exitX=0.5;exitY=1;exitDx=0;exitDy=0;" edge="1" parent="1" source="gQySaqPIzE7P9LQ3NWcE-2">
          <mxGeometry width="50" height="50" relative="1" as="geometry">
            <mxPoint x="390" y="290" as="sourcePoint" />
            <mxPoint x="414" y="190" as="targetPoint" />
          </mxGeometry>
        </mxCell>
        <mxCell id="gQySaqPIzE7P9LQ3NWcE-6" value="getopt" style="shape=process;whiteSpace=wrap;html=1;backgroundOutline=1;" vertex="1" parent="1">
          <mxGeometry x="354" y="280" width="120" height="60" as="geometry" />
        </mxCell>
        <mxCell id="gQySaqPIzE7P9LQ3NWcE-7" value="opts=procesado por linea de comando" style="rounded=0;whiteSpace=wrap;html=1;" vertex="1" parent="1">
          <mxGeometry x="354" y="524.5" width="120" height="60" as="geometry" />
        </mxCell>
        <mxCell id="gQySaqPIzE7P9LQ3NWcE-8" value="Se procesaro bien lo ingresado por linea de comando?" style="rhombus;whiteSpace=wrap;html=1;" vertex="1" parent="1">
          <mxGeometry x="329" y="380" width="170" height="100" as="geometry" />
        </mxCell>
        <mxCell id="gQySaqPIzE7P9LQ3NWcE-10" value="Error 2" style="shape=parallelogram;perimeter=parallelogramPerimeter;whiteSpace=wrap;html=1;fixedSize=1;" vertex="1" parent="1">
          <mxGeometry x="550" y="410" width="120" height="60" as="geometry" />
        </mxCell>
        <mxCell id="gQySaqPIzE7P9LQ3NWcE-11" value="Fin" style="ellipse;whiteSpace=wrap;html=1;" vertex="1" parent="1">
          <mxGeometry x="700" y="400" width="120" height="80" as="geometry" />
        </mxCell>
        <mxCell id="gQySaqPIzE7P9LQ3NWcE-12" value="" style="endArrow=none;html=1;rounded=0;exitX=0.5;exitY=1;exitDx=0;exitDy=0;entryX=0.5;entryY=0;entryDx=0;entryDy=0;" edge="1" parent="1" source="gQySaqPIzE7P9LQ3NWcE-8" target="gQySaqPIzE7P9LQ3NWcE-7">
          <mxGeometry width="50" height="50" relative="1" as="geometry">
            <mxPoint x="390" y="590" as="sourcePoint" />
            <mxPoint x="440" y="540" as="targetPoint" />
          </mxGeometry>
        </mxCell>
        <mxCell id="gQySaqPIzE7P9LQ3NWcE-13" value="" style="endArrow=none;html=1;rounded=0;exitX=1;exitY=0.5;exitDx=0;exitDy=0;entryX=0;entryY=0.25;entryDx=0;entryDy=0;" edge="1" parent="1" source="gQySaqPIzE7P9LQ3NWcE-8" target="gQySaqPIzE7P9LQ3NWcE-10">
          <mxGeometry width="50" height="50" relative="1" as="geometry">
            <mxPoint x="390" y="590" as="sourcePoint" />
            <mxPoint x="440" y="540" as="targetPoint" />
          </mxGeometry>
        </mxCell>
        <mxCell id="gQySaqPIzE7P9LQ3NWcE-14" value="" style="endArrow=none;html=1;rounded=0;exitX=1;exitY=0.5;exitDx=0;exitDy=0;entryX=0;entryY=0.5;entryDx=0;entryDy=0;" edge="1" parent="1" source="gQySaqPIzE7P9LQ3NWcE-10" target="gQySaqPIzE7P9LQ3NWcE-11">
          <mxGeometry width="50" height="50" relative="1" as="geometry">
            <mxPoint x="390" y="590" as="sourcePoint" />
            <mxPoint x="440" y="540" as="targetPoint" />
          </mxGeometry>
        </mxCell>
        <mxCell id="gQySaqPIzE7P9LQ3NWcE-15" value="Si" style="text;html=1;align=center;verticalAlign=middle;whiteSpace=wrap;rounded=0;" vertex="1" parent="1">
          <mxGeometry x="354" y="480" width="60" height="30" as="geometry" />
        </mxCell>
        <mxCell id="gQySaqPIzE7P9LQ3NWcE-16" value="No" style="text;html=1;align=center;verticalAlign=middle;whiteSpace=wrap;rounded=0;" vertex="1" parent="1">
          <mxGeometry x="499" y="400" width="60" height="30" as="geometry" />
        </mxCell>
        <mxCell id="gQySaqPIzE7P9LQ3NWcE-17" value="" style="endArrow=none;html=1;rounded=0;exitX=0.5;exitY=1;exitDx=0;exitDy=0;entryX=0.5;entryY=0;entryDx=0;entryDy=0;" edge="1" parent="1" source="gQySaqPIzE7P9LQ3NWcE-6" target="gQySaqPIzE7P9LQ3NWcE-8">
          <mxGeometry width="50" height="50" relative="1" as="geometry">
            <mxPoint x="390" y="290" as="sourcePoint" />
            <mxPoint x="440" y="240" as="targetPoint" />
          </mxGeometry>
        </mxCell>
        <mxCell id="gQySaqPIzE7P9LQ3NWcE-18" value="" style="endArrow=none;html=1;rounded=0;exitX=0.5;exitY=0;exitDx=0;exitDy=0;entryX=0.5;entryY=1;entryDx=0;entryDy=0;" edge="1" parent="1" source="gQySaqPIzE7P9LQ3NWcE-6" target="gQySaqPIzE7P9LQ3NWcE-3">
          <mxGeometry width="50" height="50" relative="1" as="geometry">
            <mxPoint x="390" y="290" as="sourcePoint" />
            <mxPoint x="440" y="240" as="targetPoint" />
          </mxGeometry>
        </mxCell>
        <mxCell id="gQySaqPIzE7P9LQ3NWcE-19" value="Lo ingresado es una mac o un arp" style="rhombus;whiteSpace=wrap;html=1;" vertex="1" parent="1">
          <mxGeometry x="329" y="630" width="170" height="100" as="geometry" />
        </mxCell>
        <mxCell id="gQySaqPIzE7P9LQ3NWcE-20" value="" style="endArrow=none;html=1;rounded=0;exitX=0;exitY=1;exitDx=0;exitDy=0;" edge="1" parent="1" source="gQySaqPIzE7P9LQ3NWcE-19">
          <mxGeometry width="50" height="50" relative="1" as="geometry">
            <mxPoint x="390" y="790" as="sourcePoint" />
            <mxPoint x="330" y="740" as="targetPoint" />
          </mxGeometry>
        </mxCell>
        <mxCell id="gQySaqPIzE7P9LQ3NWcE-21" value="mac_address=mac ingresada por linea de comando" style="rounded=0;whiteSpace=wrap;html=1;" vertex="1" parent="1">
          <mxGeometry x="270" y="740" width="120" height="60" as="geometry" />
        </mxCell>
        <mxCell id="gQySaqPIzE7P9LQ3NWcE-22" value="mostrar_arp=True" style="rounded=0;whiteSpace=wrap;html=1;" vertex="1" parent="1">
          <mxGeometry x="439" y="740" width="120" height="60" as="geometry" />
        </mxCell>
        <mxCell id="gQySaqPIzE7P9LQ3NWcE-23" value="" style="endArrow=none;html=1;rounded=0;exitX=1;exitY=1;exitDx=0;exitDy=0;entryX=0.5;entryY=0;entryDx=0;entryDy=0;" edge="1" parent="1" source="gQySaqPIzE7P9LQ3NWcE-19" target="gQySaqPIzE7P9LQ3NWcE-22">
          <mxGeometry width="50" height="50" relative="1" as="geometry">
            <mxPoint x="390" y="790" as="sourcePoint" />
            <mxPoint x="440" y="740" as="targetPoint" />
          </mxGeometry>
        </mxCell>
        <mxCell id="gQySaqPIzE7P9LQ3NWcE-24" value="mac" style="text;html=1;align=center;verticalAlign=middle;whiteSpace=wrap;rounded=0;" vertex="1" parent="1">
          <mxGeometry x="294" y="710" width="60" height="30" as="geometry" />
        </mxCell>
        <mxCell id="gQySaqPIzE7P9LQ3NWcE-25" value="arp" style="text;html=1;align=center;verticalAlign=middle;whiteSpace=wrap;rounded=0;" vertex="1" parent="1">
          <mxGeometry x="474" y="710" width="60" height="30" as="geometry" />
        </mxCell>
        <mxCell id="gQySaqPIzE7P9LQ3NWcE-26" value="" style="endArrow=none;html=1;rounded=0;exitX=0.5;exitY=1;exitDx=0;exitDy=0;entryX=0.5;entryY=0;entryDx=0;entryDy=0;" edge="1" parent="1" source="gQySaqPIzE7P9LQ3NWcE-7" target="gQySaqPIzE7P9LQ3NWcE-19">
          <mxGeometry width="50" height="50" relative="1" as="geometry">
            <mxPoint x="390" y="690" as="sourcePoint" />
            <mxPoint x="440" y="640" as="targetPoint" />
          </mxGeometry>
        </mxCell>
        <mxCell id="gQySaqPIzE7P9LQ3NWcE-27" value="Consultando la dirección mac" style="shape=parallelogram;perimeter=parallelogramPerimeter;whiteSpace=wrap;html=1;fixedSize=1;" vertex="1" parent="1">
          <mxGeometry x="262" y="843" width="120" height="60" as="geometry" />
        </mxCell>
        <mxCell id="gQySaqPIzE7P9LQ3NWcE-28" value="" style="endArrow=none;html=1;rounded=0;exitX=0.5;exitY=1;exitDx=0;exitDy=0;entryX=0.567;entryY=0.05;entryDx=0;entryDy=0;entryPerimeter=0;" edge="1" parent="1" source="gQySaqPIzE7P9LQ3NWcE-21" target="gQySaqPIzE7P9LQ3NWcE-27">
          <mxGeometry width="50" height="50" relative="1" as="geometry">
            <mxPoint x="390" y="890" as="sourcePoint" />
            <mxPoint x="440" y="840" as="targetPoint" />
          </mxGeometry>
        </mxCell>
        <mxCell id="gQySaqPIzE7P9LQ3NWcE-29" value="consultar_mac(mac_address)" style="shape=process;whiteSpace=wrap;html=1;backgroundOutline=1;" vertex="1" parent="1">
          <mxGeometry x="250" y="930" width="160" height="60" as="geometry" />
        </mxCell>
        <mxCell id="gQySaqPIzE7P9LQ3NWcE-30" value="" style="endArrow=none;html=1;rounded=0;exitX=0.5;exitY=0;exitDx=0;exitDy=0;entryX=0.567;entryY=1.017;entryDx=0;entryDy=0;entryPerimeter=0;" edge="1" parent="1" source="gQySaqPIzE7P9LQ3NWcE-29" target="gQySaqPIzE7P9LQ3NWcE-27">
          <mxGeometry width="50" height="50" relative="1" as="geometry">
            <mxPoint x="350" y="890" as="sourcePoint" />
            <mxPoint x="400" y="840" as="targetPoint" />
          </mxGeometry>
        </mxCell>
        <mxCell id="gQySaqPIzE7P9LQ3NWcE-31" value="consultar_arp()" style="shape=process;whiteSpace=wrap;html=1;backgroundOutline=1;" vertex="1" parent="1">
          <mxGeometry x="439" y="840" width="120" height="60" as="geometry" />
        </mxCell>
        <mxCell id="gQySaqPIzE7P9LQ3NWcE-32" value="Fin" style="ellipse;whiteSpace=wrap;html=1;" vertex="1" parent="1">
          <mxGeometry x="630" y="930" width="120" height="80" as="geometry" />
        </mxCell>
        <mxCell id="gQySaqPIzE7P9LQ3NWcE-33" value="Funcion no implementada aun" style="shape=parallelogram;perimeter=parallelogramPerimeter;whiteSpace=wrap;html=1;fixedSize=1;" vertex="1" parent="1">
          <mxGeometry x="630" y="840" width="120" height="60" as="geometry" />
        </mxCell>
        <mxCell id="gQySaqPIzE7P9LQ3NWcE-34" value="" style="endArrow=none;html=1;rounded=0;exitX=1;exitY=0.5;exitDx=0;exitDy=0;entryX=0;entryY=0.5;entryDx=0;entryDy=0;" edge="1" parent="1" source="gQySaqPIzE7P9LQ3NWcE-31" target="gQySaqPIzE7P9LQ3NWcE-33">
          <mxGeometry width="50" height="50" relative="1" as="geometry">
            <mxPoint x="350" y="990" as="sourcePoint" />
            <mxPoint x="400" y="940" as="targetPoint" />
          </mxGeometry>
        </mxCell>
        <mxCell id="gQySaqPIzE7P9LQ3NWcE-35" value="" style="endArrow=none;html=1;rounded=0;exitX=0.5;exitY=0;exitDx=0;exitDy=0;entryX=0.5;entryY=1;entryDx=0;entryDy=0;" edge="1" parent="1" source="gQySaqPIzE7P9LQ3NWcE-32" target="gQySaqPIzE7P9LQ3NWcE-33">
          <mxGeometry width="50" height="50" relative="1" as="geometry">
            <mxPoint x="350" y="990" as="sourcePoint" />
            <mxPoint x="400" y="940" as="targetPoint" />
          </mxGeometry>
        </mxCell>
        <mxCell id="gQySaqPIzE7P9LQ3NWcE-36" value="API_ENDPOINT=&lt;span style=&quot;color: rgb(206, 145, 120); background-color: rgb(31, 31, 31); font-family: Consolas, &amp;quot;Courier New&amp;quot;, monospace; font-size: 14px; white-space: pre;&quot;&gt;https://api.maclookup.app/v2/macs/&lt;/span&gt;" style="rounded=0;whiteSpace=wrap;html=1;" vertex="1" parent="1">
          <mxGeometry x="148" y="1020" width="364" height="80" as="geometry" />
        </mxCell>
        <mxCell id="gQySaqPIzE7P9LQ3NWcE-37" value="" style="endArrow=none;html=1;rounded=0;exitX=0.5;exitY=1;exitDx=0;exitDy=0;entryX=0.5;entryY=0;entryDx=0;entryDy=0;" edge="1" parent="1" source="gQySaqPIzE7P9LQ3NWcE-29" target="gQySaqPIzE7P9LQ3NWcE-36">
          <mxGeometry width="50" height="50" relative="1" as="geometry">
            <mxPoint x="350" y="1090" as="sourcePoint" />
            <mxPoint x="400" y="1040" as="targetPoint" />
          </mxGeometry>
        </mxCell>
        <mxCell id="gQySaqPIzE7P9LQ3NWcE-38" value="rspuesta=solicitud a esa url con la dirección mac que tenemos" style="rounded=0;whiteSpace=wrap;html=1;" vertex="1" parent="1">
          <mxGeometry x="245" y="1140" width="170" height="60" as="geometry" />
        </mxCell>
        <mxCell id="gQySaqPIzE7P9LQ3NWcE-39" value="" style="endArrow=none;html=1;rounded=0;exitX=0.5;exitY=1;exitDx=0;exitDy=0;entryX=0.5;entryY=0;entryDx=0;entryDy=0;" edge="1" parent="1" source="gQySaqPIzE7P9LQ3NWcE-36" target="gQySaqPIzE7P9LQ3NWcE-38">
          <mxGeometry width="50" height="50" relative="1" as="geometry">
            <mxPoint x="350" y="1090" as="sourcePoint" />
            <mxPoint x="400" y="1040" as="targetPoint" />
          </mxGeometry>
        </mxCell>
        <mxCell id="gQySaqPIzE7P9LQ3NWcE-40" value="Solicitud exitosa" style="rhombus;whiteSpace=wrap;html=1;" vertex="1" parent="1">
          <mxGeometry x="255" y="1240" width="150" height="80" as="geometry" />
        </mxCell>
        <mxCell id="gQySaqPIzE7P9LQ3NWcE-41" value="Error con la&amp;nbsp;&lt;div&gt;conexión&lt;/div&gt;" style="shape=parallelogram;perimeter=parallelogramPerimeter;whiteSpace=wrap;html=1;fixedSize=1;" vertex="1" parent="1">
          <mxGeometry x="80" y="1250" width="120" height="60" as="geometry" />
        </mxCell>
        <mxCell id="gQySaqPIzE7P9LQ3NWcE-42" value="Fin" style="ellipse;whiteSpace=wrap;html=1;" vertex="1" parent="1">
          <mxGeometry x="80" y="1350" width="120" height="80" as="geometry" />
        </mxCell>
        <mxCell id="gQySaqPIzE7P9LQ3NWcE-43" value="" style="endArrow=none;html=1;rounded=0;exitX=0;exitY=0.5;exitDx=0;exitDy=0;entryX=1;entryY=0.5;entryDx=0;entryDy=0;" edge="1" parent="1" source="gQySaqPIzE7P9LQ3NWcE-40" target="gQySaqPIzE7P9LQ3NWcE-41">
          <mxGeometry width="50" height="50" relative="1" as="geometry">
            <mxPoint x="390" y="1290" as="sourcePoint" />
            <mxPoint x="440" y="1240" as="targetPoint" />
          </mxGeometry>
        </mxCell>
        <mxCell id="gQySaqPIzE7P9LQ3NWcE-44" value="" style="endArrow=none;html=1;rounded=0;exitX=0.5;exitY=1;exitDx=0;exitDy=0;entryX=0.5;entryY=0;entryDx=0;entryDy=0;" edge="1" parent="1" source="gQySaqPIzE7P9LQ3NWcE-41" target="gQySaqPIzE7P9LQ3NWcE-42">
          <mxGeometry width="50" height="50" relative="1" as="geometry">
            <mxPoint x="390" y="1290" as="sourcePoint" />
            <mxPoint x="440" y="1240" as="targetPoint" />
          </mxGeometry>
        </mxCell>
        <mxCell id="gQySaqPIzE7P9LQ3NWcE-45" value="" style="endArrow=none;html=1;rounded=0;exitX=0.5;exitY=1;exitDx=0;exitDy=0;entryX=0.5;entryY=0;entryDx=0;entryDy=0;" edge="1" parent="1" source="gQySaqPIzE7P9LQ3NWcE-38" target="gQySaqPIzE7P9LQ3NWcE-40">
          <mxGeometry width="50" height="50" relative="1" as="geometry">
            <mxPoint x="390" y="1290" as="sourcePoint" />
            <mxPoint x="440" y="1240" as="targetPoint" />
          </mxGeometry>
        </mxCell>
        <mxCell id="gQySaqPIzE7P9LQ3NWcE-46" value="No" style="text;html=1;align=center;verticalAlign=middle;whiteSpace=wrap;rounded=0;" vertex="1" parent="1">
          <mxGeometry x="195" y="1250" width="60" height="30" as="geometry" />
        </mxCell>
        <mxCell id="gQySaqPIzE7P9LQ3NWcE-47" value="procesar_respuesta(respuesta, mac_address)" style="shape=process;whiteSpace=wrap;html=1;backgroundOutline=1;" vertex="1" parent="1">
          <mxGeometry x="480" y="1240" width="180" height="80" as="geometry" />
        </mxCell>
        <mxCell id="gQySaqPIzE7P9LQ3NWcE-48" value="" style="endArrow=none;html=1;rounded=0;exitX=1;exitY=0.5;exitDx=0;exitDy=0;entryX=0;entryY=0.5;entryDx=0;entryDy=0;" edge="1" parent="1" source="gQySaqPIzE7P9LQ3NWcE-40" target="gQySaqPIzE7P9LQ3NWcE-47">
          <mxGeometry width="50" height="50" relative="1" as="geometry">
            <mxPoint x="390" y="1290" as="sourcePoint" />
            <mxPoint x="440" y="1240" as="targetPoint" />
          </mxGeometry>
        </mxCell>
        <mxCell id="gQySaqPIzE7P9LQ3NWcE-49" value="Si" style="text;html=1;align=center;verticalAlign=middle;whiteSpace=wrap;rounded=0;" vertex="1" parent="1">
          <mxGeometry x="410" y="1250" width="60" height="30" as="geometry" />
        </mxCell>
        <mxCell id="gQySaqPIzE7P9LQ3NWcE-50" value="respuesta.status_code==200" style="rhombus;whiteSpace=wrap;html=1;" vertex="1" parent="1">
          <mxGeometry x="750" y="1240" width="180" height="80" as="geometry" />
        </mxCell>
        <mxCell id="gQySaqPIzE7P9LQ3NWcE-51" value="" style="endArrow=none;html=1;rounded=0;exitX=1;exitY=0.5;exitDx=0;exitDy=0;entryX=0;entryY=0.5;entryDx=0;entryDy=0;" edge="1" parent="1" source="gQySaqPIzE7P9LQ3NWcE-47" target="gQySaqPIzE7P9LQ3NWcE-50">
          <mxGeometry width="50" height="50" relative="1" as="geometry">
            <mxPoint x="810" y="1390" as="sourcePoint" />
            <mxPoint x="860" y="1340" as="targetPoint" />
          </mxGeometry>
        </mxCell>
        <mxCell id="gQySaqPIzE7P9LQ3NWcE-52" value="Error, en el estado de la api" style="shape=parallelogram;perimeter=parallelogramPerimeter;whiteSpace=wrap;html=1;fixedSize=1;" vertex="1" parent="1">
          <mxGeometry x="990" y="1250" width="170" height="60" as="geometry" />
        </mxCell>
        <mxCell id="gQySaqPIzE7P9LQ3NWcE-53" value="" style="endArrow=none;html=1;rounded=0;exitX=1;exitY=0.5;exitDx=0;exitDy=0;entryX=0;entryY=0.5;entryDx=0;entryDy=0;" edge="1" parent="1" source="gQySaqPIzE7P9LQ3NWcE-50" target="gQySaqPIzE7P9LQ3NWcE-52">
          <mxGeometry width="50" height="50" relative="1" as="geometry">
            <mxPoint x="810" y="1390" as="sourcePoint" />
            <mxPoint x="860" y="1340" as="targetPoint" />
          </mxGeometry>
        </mxCell>
        <mxCell id="gQySaqPIzE7P9LQ3NWcE-54" value="Fin" style="ellipse;whiteSpace=wrap;html=1;" vertex="1" parent="1">
          <mxGeometry x="1015" y="1360" width="120" height="80" as="geometry" />
        </mxCell>
        <mxCell id="gQySaqPIzE7P9LQ3NWcE-55" value="" style="endArrow=none;html=1;rounded=0;exitX=0.5;exitY=1;exitDx=0;exitDy=0;entryX=0.5;entryY=0;entryDx=0;entryDy=0;" edge="1" parent="1" source="gQySaqPIzE7P9LQ3NWcE-52" target="gQySaqPIzE7P9LQ3NWcE-54">
          <mxGeometry width="50" height="50" relative="1" as="geometry">
            <mxPoint x="880" y="1390" as="sourcePoint" />
            <mxPoint x="930" y="1340" as="targetPoint" />
          </mxGeometry>
        </mxCell>
        <mxCell id="gQySaqPIzE7P9LQ3NWcE-56" value="No" style="text;html=1;align=center;verticalAlign=middle;whiteSpace=wrap;rounded=0;" vertex="1" parent="1">
          <mxGeometry x="930" y="1250" width="60" height="30" as="geometry" />
        </mxCell>
        <mxCell id="gQySaqPIzE7P9LQ3NWcE-58" value="datos=respuesta.json()" style="rounded=0;whiteSpace=wrap;html=1;" vertex="1" parent="1">
          <mxGeometry x="775" y="1370" width="130" height="60" as="geometry" />
        </mxCell>
        <mxCell id="gQySaqPIzE7P9LQ3NWcE-59" value="" style="endArrow=none;html=1;rounded=0;exitX=0.5;exitY=0;exitDx=0;exitDy=0;entryX=0.5;entryY=1;entryDx=0;entryDy=0;" edge="1" parent="1" source="gQySaqPIzE7P9LQ3NWcE-58" target="gQySaqPIzE7P9LQ3NWcE-50">
          <mxGeometry width="50" height="50" relative="1" as="geometry">
            <mxPoint x="880" y="1390" as="sourcePoint" />
            <mxPoint x="930" y="1340" as="targetPoint" />
          </mxGeometry>
        </mxCell>
        <mxCell id="gQySaqPIzE7P9LQ3NWcE-60" value="Si" style="text;html=1;align=center;verticalAlign=middle;whiteSpace=wrap;rounded=0;" vertex="1" parent="1">
          <mxGeometry x="830" y="1330" width="60" height="30" as="geometry" />
        </mxCell>
        <mxCell id="gQySaqPIzE7P9LQ3NWcE-61" value="mostrar_resultado(datos,mac_address)" style="shape=process;whiteSpace=wrap;html=1;backgroundOutline=1;" vertex="1" parent="1">
          <mxGeometry x="720" y="1470" width="240" height="60" as="geometry" />
        </mxCell>
        <mxCell id="gQySaqPIzE7P9LQ3NWcE-62" value="" style="endArrow=none;html=1;rounded=0;exitX=0.5;exitY=1;exitDx=0;exitDy=0;entryX=0.5;entryY=0;entryDx=0;entryDy=0;" edge="1" parent="1" source="gQySaqPIzE7P9LQ3NWcE-58" target="gQySaqPIzE7P9LQ3NWcE-61">
          <mxGeometry width="50" height="50" relative="1" as="geometry">
            <mxPoint x="740" y="1490" as="sourcePoint" />
            <mxPoint x="790" y="1440" as="targetPoint" />
          </mxGeometry>
        </mxCell>
        <mxCell id="gQySaqPIzE7P9LQ3NWcE-63" value="datos contiene la clave company" style="rhombus;whiteSpace=wrap;html=1;" vertex="1" parent="1">
          <mxGeometry x="540" y="1450" width="120" height="100" as="geometry" />
        </mxCell>
        <mxCell id="gQySaqPIzE7P9LQ3NWcE-64" value="Dirección mac:mac_addres&lt;div&gt;Fabricante: No encontrado&lt;/div&gt;" style="shape=parallelogram;perimeter=parallelogramPerimeter;whiteSpace=wrap;html=1;fixedSize=1;" vertex="1" parent="1">
          <mxGeometry x="515" y="1350" width="170" height="60" as="geometry" />
        </mxCell>
        <mxCell id="gQySaqPIzE7P9LQ3NWcE-65" value="Dirección mac: mac_address&lt;div&gt;Fabricante: company&lt;/div&gt;" style="shape=parallelogram;perimeter=parallelogramPerimeter;whiteSpace=wrap;html=1;fixedSize=1;" vertex="1" parent="1">
          <mxGeometry x="510" y="1580" width="180" height="60" as="geometry" />
        </mxCell>
        <mxCell id="gQySaqPIzE7P9LQ3NWcE-66" value="" style="endArrow=none;html=1;rounded=0;exitX=0.5;exitY=0;exitDx=0;exitDy=0;entryX=0.5;entryY=1;entryDx=0;entryDy=0;" edge="1" parent="1" source="gQySaqPIzE7P9LQ3NWcE-63" target="gQySaqPIzE7P9LQ3NWcE-64">
          <mxGeometry width="50" height="50" relative="1" as="geometry">
            <mxPoint x="550" y="1490" as="sourcePoint" />
            <mxPoint x="600" y="1440" as="targetPoint" />
          </mxGeometry>
        </mxCell>
        <mxCell id="gQySaqPIzE7P9LQ3NWcE-67" value="" style="endArrow=none;html=1;rounded=0;exitX=0.5;exitY=1;exitDx=0;exitDy=0;entryX=0.5;entryY=0;entryDx=0;entryDy=0;" edge="1" parent="1" source="gQySaqPIzE7P9LQ3NWcE-63" target="gQySaqPIzE7P9LQ3NWcE-65">
          <mxGeometry width="50" height="50" relative="1" as="geometry">
            <mxPoint x="550" y="1490" as="sourcePoint" />
            <mxPoint x="600" y="1440" as="targetPoint" />
          </mxGeometry>
        </mxCell>
        <mxCell id="gQySaqPIzE7P9LQ3NWcE-68" value="No" style="text;html=1;align=center;verticalAlign=middle;whiteSpace=wrap;rounded=0;" vertex="1" parent="1">
          <mxGeometry x="585" y="1420" width="60" height="30" as="geometry" />
        </mxCell>
        <mxCell id="gQySaqPIzE7P9LQ3NWcE-69" value="Si" style="text;html=1;align=center;verticalAlign=middle;whiteSpace=wrap;rounded=0;" vertex="1" parent="1">
          <mxGeometry x="585" y="1550" width="60" height="30" as="geometry" />
        </mxCell>
        <mxCell id="gQySaqPIzE7P9LQ3NWcE-70" value="Tiempo de respuesta" style="shape=parallelogram;perimeter=parallelogramPerimeter;whiteSpace=wrap;html=1;fixedSize=1;" vertex="1" parent="1">
          <mxGeometry x="360" y="1470" width="140" height="60" as="geometry" />
        </mxCell>
        <mxCell id="gQySaqPIzE7P9LQ3NWcE-71" value="" style="endArrow=none;html=1;rounded=0;exitX=0.557;exitY=-0.05;exitDx=0;exitDy=0;exitPerimeter=0;" edge="1" parent="1" source="gQySaqPIzE7P9LQ3NWcE-70">
          <mxGeometry width="50" height="50" relative="1" as="geometry">
            <mxPoint x="550" y="1490" as="sourcePoint" />
            <mxPoint x="440" y="1380" as="targetPoint" />
          </mxGeometry>
        </mxCell>
        <mxCell id="gQySaqPIzE7P9LQ3NWcE-72" value="" style="endArrow=none;html=1;rounded=0;entryX=0;entryY=0.5;entryDx=0;entryDy=0;" edge="1" parent="1" target="gQySaqPIzE7P9LQ3NWcE-64">
          <mxGeometry width="50" height="50" relative="1" as="geometry">
            <mxPoint x="440" y="1380" as="sourcePoint" />
            <mxPoint x="600" y="1440" as="targetPoint" />
          </mxGeometry>
        </mxCell>
        <mxCell id="gQySaqPIzE7P9LQ3NWcE-73" value="" style="endArrow=none;html=1;rounded=0;exitX=0.5;exitY=1;exitDx=0;exitDy=0;" edge="1" parent="1" source="gQySaqPIzE7P9LQ3NWcE-70">
          <mxGeometry width="50" height="50" relative="1" as="geometry">
            <mxPoint x="550" y="1490" as="sourcePoint" />
            <mxPoint x="430" y="1610" as="targetPoint" />
          </mxGeometry>
        </mxCell>
        <mxCell id="gQySaqPIzE7P9LQ3NWcE-74" value="" style="endArrow=none;html=1;rounded=0;entryX=0;entryY=0.5;entryDx=0;entryDy=0;" edge="1" parent="1" target="gQySaqPIzE7P9LQ3NWcE-65">
          <mxGeometry width="50" height="50" relative="1" as="geometry">
            <mxPoint x="430" y="1610" as="sourcePoint" />
            <mxPoint x="600" y="1440" as="targetPoint" />
          </mxGeometry>
        </mxCell>
        <mxCell id="gQySaqPIzE7P9LQ3NWcE-75" value="Fin" style="ellipse;whiteSpace=wrap;html=1;" vertex="1" parent="1">
          <mxGeometry x="180" y="1460" width="120" height="80" as="geometry" />
        </mxCell>
        <mxCell id="gQySaqPIzE7P9LQ3NWcE-76" value="" style="endArrow=none;html=1;rounded=0;exitX=1;exitY=0.5;exitDx=0;exitDy=0;entryX=0;entryY=0.5;entryDx=0;entryDy=0;" edge="1" parent="1" source="gQySaqPIzE7P9LQ3NWcE-75" target="gQySaqPIzE7P9LQ3NWcE-70">
          <mxGeometry width="50" height="50" relative="1" as="geometry">
            <mxPoint x="290" y="1390" as="sourcePoint" />
            <mxPoint x="340" y="1340" as="targetPoint" />
          </mxGeometry>
        </mxCell>
        <mxCell id="gQySaqPIzE7P9LQ3NWcE-77" value="" style="endArrow=none;html=1;rounded=0;exitX=1;exitY=0.5;exitDx=0;exitDy=0;entryX=0;entryY=0.5;entryDx=0;entryDy=0;" edge="1" parent="1" source="gQySaqPIzE7P9LQ3NWcE-63" target="gQySaqPIzE7P9LQ3NWcE-61">
          <mxGeometry width="50" height="50" relative="1" as="geometry">
            <mxPoint x="540" y="1490" as="sourcePoint" />
            <mxPoint x="590" y="1440" as="targetPoint" />
          </mxGeometry>
        </mxCell>
      </root>
    </mxGraphModel>
  </diagram>
</mxfile>
